<svg xmlns="http://www.w3.org/2000/svg" viewBox="0 0 24 24" enable-background="new 0 0 24 24">
    <path d="M 12 5 C 10.3 5 9 6.3 9 8 C 9 9.7 10.3 11 12 11 C 13.7 11 15 9.7 15 8 C 15 6.3 13.7 5 12 5 z M 5.5 7 C 4.1192881 7 3 8.1192881 3 9.5 C 3 10.880712 4.1192881 12 5.5 12 C 6.8807119 12 8 10.880712 8 9.5 C 8 8.1192881 6.8807119 7 5.5 7 z M 18.5 7 C 17.119288 7 16 8.1192881 16 9.5 C 16 10.880712 17.119288 12 18.5 12 C 19.880712 12 21 10.880712 21 9.5 C 21 8.1192881 19.880712 7 18.5 7 z M 12 13 C 7.4 13 6 16.3125 6 16.3125 L 6 14 L 5.5 14 C 2 14 1 16.6875 1 16.6875 L 1 19 L 6 19 L 18 19 L 23 19 L 23 16.6875 C 23 16.6875 22 14 18.5 14 L 18 14 L 18 16.3125 C 18 16.3125 16.6 13 12 13 z"></path>
</svg>