<svg xmlns="http://www.w3.org/2000/svg" viewBox="0 0 24 24">
    <path style="text-indent:0;text-align:start;line-height:normal;text-transform:none;block-progression:tb;-inkscape-font-specification:Sans" d="M 13.5625 1 C 13.42907 1.0090455 13.289157 1.0250512 13.15625 1.0625 L 5.3125 3.28125 C 4.2490733 3.5803387 3.6067462 4.7183052 3.90625 5.78125 L 8.34375 21.53125 C 8.643489 22.59503 9.7790178 23.239468 10.84375 22.9375 L 18.6875 20.71875 C 19.751588 20.418924 20.393341 19.282003 20.09375 18.21875 L 15.65625 2.46875 C 15.393902 1.537673 14.496509 0.93668119 13.5625 1 z M 14.03125 4 L 17.90625 17.75 L 9.96875 20 L 6.09375 6.25 L 14.03125 4 z M 20.71875 5.3125 L 18.78125 5.84375 L 21 13.71875 L 22.9375 13.15625 L 20.71875 5.3125 z M 3 10.28125 L 1.0625 10.84375 L 3.28125 18.6875 L 5.21875 18.15625 L 3 10.28125 z" overflow="visible" font-family="Sans"></path>
</svg>