<svg xmlns="http://www.w3.org/2000/svg" viewBox="0 0 808.12 92.54">
  <defs>
    <style>
      .a {
        fill: #515967;
      }

      .b {
        fill: #98b54f;
      }

      .c {
        fill: #81b5b6;
      }

      .d {
        fill: #c4686d;
      }
    </style>
  </defs>
  <title>promiseo-logo</title>
  <g>
    <path class="a" d="M505.47,148c22.05,0,39.4,18.87,39.52,42.13-.12,23.27-17.46,42.13-39.52,42.13-22.3,0-39.75-18.87-39.87-42.13.12-23.26,17.58-42.13,39.87-42.13m0,78.44c18.17,0,33.5-16,33.62-36.31-.12-20.53-15.45-36.19-33.62-36.19-18.76,0-34.09,15.66-34.09,36.19,0,20.29,15.34,36.31,34.09,36.31" transform="translate(-107.94 -140.59)"/>
    <path class="a" d="M329.12,151a2.88,2.88,0,0,1,2.83-2.85h23.36a23.68,23.68,0,0,1,0,47.35l-20.41.24v32.63a2.89,2.89,0,0,1-5.78,0Zm26.19,38.93a18.11,18.11,0,0,0,17.81-18A17.93,17.93,0,0,0,355.31,154H334.9v36Z" transform="translate(-107.94 -140.59)"/>
    <path class="a" d="M628.82,160l-26.43,36.9a2.72,2.72,0,0,1-2.36,1.31h-.24a2.66,2.66,0,0,1-2.48-1.31L570.9,160.15v68.23a2.88,2.88,0,0,1-2.83,2.86,2.91,2.91,0,0,1-3-2.86v-76.9a2.71,2.71,0,0,1,1.18-2.25c0-.12.12-.12.24-.24a3,3,0,0,1,4,.71l29.37,40.94,29.26-40.94a2.93,2.93,0,0,1,4-.71,6.39,6.39,0,0,1,.82,1,3.87,3.87,0,0,1,.47,1.54v76.9a2.88,2.88,0,0,1-2.83,2.86,2.81,2.81,0,0,1-2.83-2.86Z" transform="translate(-107.94 -140.59)"/>
    <path class="a" d="M665.49,151a2.89,2.89,0,0,1,5.78,0v77.37a2.89,2.89,0,0,1-5.78,0Z" transform="translate(-107.94 -140.59)"/>
    <path class="a" d="M448.77,226.65l-24.58-30.87a23.79,23.79,0,0,0-1.72-47.5H399.11a2.88,2.88,0,0,0-2.83,2.84v77.38a2.89,2.89,0,0,0,5.78,0V195.88h14.81l27.42,34.44a2.84,2.84,0,0,0,4,.4,2.91,2.91,0,0,0,.5-4.07M402.06,154.1h20.41a18,18,0,0,1,0,36H402.06Z" transform="translate(-107.94 -140.59)"/>
    <path class="a" d="M697.7,216.28a2.49,2.49,0,0,1,3.63-.35c6.09,4.95,16.28,10.72,26.95,10.6,7.14,0,13.59-2.12,18-5.42s7-7.66,7-12.26-2.23-8.25-6.68-11.31-11-5.19-19-6.72h-.23c-7.62-1.41-14.3-3.54-19.34-7s-8.43-8.25-8.43-14.38,3.39-11.67,8.55-15.44a33.49,33.49,0,0,1,19.8-6c10.78,0,18.86,5.31,25.3,9.55a2.64,2.64,0,0,1,.71,3.65,2.47,2.47,0,0,1-3.52.71c-6.45-4.25-13.47-8.72-22.49-8.72a29.13,29.13,0,0,0-16.75,5c-4.1,3.06-6.44,7.07-6.44,11.31s2,7.19,6.09,10,10.19,4.83,17.57,6.25h.23c8.2,1.53,15.47,3.89,20.85,7.54s9,9,9,15.56-3.75,12.49-9.26,16.5a35.87,35.87,0,0,1-21.08,6.48c-12.53-.12-23.43-6.48-30.23-11.9a2.75,2.75,0,0,1-.35-3.65" transform="translate(-107.94 -140.59)"/>
    <path class="a" d="M775.48,152a2.86,2.86,0,0,1,2.82-2.83h42.17a2.78,2.78,0,0,1,2.81,2.83,2.81,2.81,0,0,1-2.81,2.95H781.23v32.65h34.32a2.89,2.89,0,0,1,0,5.78H781.23v32.53h39.25a2.81,2.81,0,0,1,2.81,2.94,2.78,2.78,0,0,1-2.81,2.83H778.06a2.82,2.82,0,0,1-2.58-2.83Z" transform="translate(-107.94 -140.59)"/>
    <path class="a" d="M876.82,148c21.9,0,39.13,18.74,39.24,41.84-.12,23.1-17.34,41.84-39.24,41.84-22.14,0-39.48-18.74-39.6-41.84.12-23.1,17.46-41.84,39.6-41.84m0,77.91c18,0,33.27-15.91,33.39-36.07-.12-20.39-15.35-35.94-33.39-35.94-18.63,0-33.86,15.56-33.86,35.94,0,20.15,15.23,36.07,33.86,36.07" transform="translate(-107.94 -140.59)"/>
    <path class="a" d="M296.23,166.56a25.82,25.82,0,1,0-25.82,26,25.89,25.89,0,0,0,25.82-26m-43.49,0a17.67,17.67,0,1,1,17.67,17.77,17.72,17.72,0,0,1-17.67-17.77" transform="translate(-107.94 -140.59)"/>
    <path class="b" d="M123.55,169.35a15.71,15.71,0,1,0,15.62,15.71,15.66,15.66,0,0,0-15.62-15.71" transform="translate(-107.94 -140.59)"/>
    <path class="c" d="M185.79,155.25a19.63,19.63,0,1,0,19.51,19.64,19.57,19.57,0,0,0-19.51-19.64" transform="translate(-107.94 -140.59)"/>
    <path class="d" d="M227.74,208.95a12.2,12.2,0,1,0,9.54,14.35,12.13,12.13,0,0,0-9.54-14.35" transform="translate(-107.94 -140.59)"/>
    <path class="a" d="M241.63,207.65l13.29-14.87a25.35,25.35,0,0,1-5.9-4.9l-13,14.69a3.83,3.83,0,0,0,2.66,6.57,3.77,3.77,0,0,0,2.71-1.15s0,0,0,0A3.73,3.73,0,0,0,241.63,207.65Z" transform="translate(-107.94 -140.59)"/>
    <path class="a" d="M208,192.92a3.81,3.81,0,0,0-6.71,1.84,3.86,3.86,0,0,0,.61,2.8h0v0a3.2,3.2,0,0,0,.22.28l7,9.73.1.12,0,0h0a3.79,3.79,0,0,0,6.76-1.7,3.83,3.83,0,0,0-.78-3l-7.25-10.13,0,0" transform="translate(-107.94 -140.59)"/>
    <path class="a" d="M168.58,197.63a3.85,3.85,0,0,0-3.27-6.17,3.82,3.82,0,0,0-2.58,1.22h0v0a3.15,3.15,0,0,0-.22.28l-3.91,4.51L149,208.12l-6.81-7.27-.11-.1,0,0h0a3.77,3.77,0,0,0-2.54-1.12,3.81,3.81,0,0,0-3.94,3.68,4.51,4.51,0,0,0,1.43,3.08l9.38,10.2v0a3.81,3.81,0,0,0,1.9.95h.07l.16,0h.34l.25,0h.16a3.79,3.79,0,0,0,2.56-1.14h0l8.41-9.38a4,4,0,0,0,.31-.33l1.2-1.35,3.5-3.91,0,0,3.36-3.79h0" transform="translate(-107.94 -140.59)"/>
  </g>
</svg>
